<?xml version="1.0" encoding="utf-8"?>
<!-- Generator: Adobe Illustrator 14.0.0, SVG Export Plug-In . SVG Version: 6.00 Build 43363)  -->
<!DOCTYPE svg PUBLIC "-//W3C//DTD SVG 1.1//EN" "http://www.w3.org/Graphics/SVG/1.1/DTD/svg11.dtd">
<svg version="1.1" id="Layer_1" xmlns="http://www.w3.org/2000/svg" xmlns:xlink="http://www.w3.org/1999/xlink" x="0px" y="0px"
	 width="200px" height="125px" viewBox="0 0 200 125" enable-background="new 0 0 200 125" xml:space="preserve">
<g>
	<path d="M40.316,44.17c0.8-0.114,1.372-0.229,1.715-0.229c1.372,0,2.516,1.258,2.516,2.745c0,2.287-2.058,4.23-4.459,4.23
		c-1.944,0-3.431-1.486-3.431-3.544c0-3.888,3.888-7.204,8.462-7.204c5.031,0,8.348,3.888,8.348,9.605
		c0,6.975-3.888,15.666-10.863,24.013c-7.204,8.69-14.98,13.265-22.755,13.265c-9.834,0-16.695-7.547-16.695-18.41
		c0-20.697,25.843-45.854,46.998-45.854c12.579,0,21.155,9.605,21.155,23.785c0,15.208-8.119,30.989-27.101,53.172
		c-0.457,0.458-0.572,0.687-0.572,0.801l0.115,0.114c0.572,0,3.888-2.516,6.975-5.146c6.289-5.375,8.233-7.547,33.161-35.906
		c15.094-17.152,24.929-25.614,39.107-33.733c11.207-6.403,22.184-9.948,30.646-9.948c3.431,0,4.574,0.458,4.574,1.601
		c0,0.8-0.686,1.372-1.601,1.372h-0.915c-2.059-0.229-3.545-0.343-5.031-0.343c-9.263,0-21.498,4.574-33.962,12.579
		c-12.578,8.119-16.581,12.007-39.565,38.192C61.928,86.594,54.152,94.37,46.262,100.202c-3.888,2.744-5.718,4.002-6.061,4.002
		c-0.229,0-0.343-0.114-0.343-0.343c0-0.114,0-0.114,1.258-1.716C54.267,85.107,65.13,58.235,65.13,42.57
		c0-12.121-5.489-18.868-15.323-18.868c-8.004,0-19.554,6.061-28.245,14.865c-9.376,9.605-15.437,22.298-15.437,32.59
		c0,9.262,5.375,14.979,13.836,14.979c8.119,0,16.581-5.603,24.127-15.895c5.375-7.204,8.348-14.637,8.348-20.24
		c0-5.375-2.859-8.805-7.318-8.805c-2.516,0-5.603,1.487-5.603,2.63c0,0.229,0.114,0.343,0.343,0.343H40.316z"/>
	<path d="M85.831,98.258c-4.459,0-8.119-4.23-8.119-9.377c0-5.717,3.773-11.32,11.32-16.58c5.032-3.659,9.72-5.604,13.036-5.604
		c2.973,0,4.803,1.944,4.803,5.146c0,3.773-2.744,10.063-6.747,15.438c0.915,0.572,1.487,0.687,2.515,0.687
		c3.316,0,8.462-3.545,11.321-8.005c0.457-0.571,0.686-0.801,0.914-0.801c0.115,0,0.229,0.114,0.229,0.229
		c0,0.457-1.716,2.744-3.316,4.23c-3.202,3.316-6.289,4.917-9.034,4.917c-1.143,0-2.172-0.229-3.087-0.686
		C94.979,94.484,90.062,98.258,85.831,98.258z M106.07,71.957c0-2.973-1.486-4.573-4.116-4.573
		c-6.747,0-19.668,17.267-19.668,26.071c0,2.287,1.487,3.888,3.659,3.888c4.002,0,8.577-3.545,13.15-9.948
		c-1.144-1.258-1.601-2.287-1.601-3.659c0-3.659,3.659-8.576,6.403-8.576c0.687,0,1.029,0.343,1.258,1.144
		C105.842,74.816,106.07,73.673,106.07,71.957z"/>
	<path d="M116.02,87.967c-1.715,2.744-2.744,5.374-2.744,6.975c0,1.716,0.801,2.516,2.63,2.516c3.431,0,9.034-5.717,17.495-17.724
		c0.229-0.458,0.458-0.572,0.572-0.572c0.229,0,0.343,0.114,0.343,0.344c0,0.114-0.114,0.343-0.571,0.914l-2.401,3.316
		c-7.433,10.292-12.007,14.522-16.009,14.522c-3.545,0-6.175-2.744-6.175-6.518c0-2.63,0.914-4.917,3.888-9.834l8.69-14.751
		c1.144,0.229,1.715,0.343,2.744,0.343c1.486,0,2.401-0.114,4.231-0.343L116.02,87.967z M133.516,56.406
		c0,2.63-2.631,5.375-5.261,5.375c-1.486,0-2.516-1.029-2.516-2.516c0-2.516,2.858-5.26,5.375-5.26
		C132.486,54.005,133.516,55.034,133.516,56.406z"/>
	<path d="M149.754,83.735c-7.09,9.834-12.121,14.522-15.552,14.522c-3.201,0-5.488-2.63-5.488-6.403
		c0-4.117,0.114-4.346,11.092-22.527c5.26-8.805,12.807-21.612,17.038-29.159c1.258,0.343,1.715,0.458,2.973,0.458
		c1.602,0,2.401-0.115,3.889-0.687c-31.218,52.029-31.218,52.029-31.218,55.002c0,1.602,0.801,2.516,2.173,2.516
		c3.087,0,8.919-6.061,17.152-17.724c0.229-0.458,0.457-0.572,0.686-0.572c0.114,0,0.229,0.114,0.229,0.344
		c0,0.114-0.115,0.457-0.572,0.914L149.754,83.735z"/>
	<path d="M179.828,67.155c1.144,0.229,1.829,0.343,2.973,0.343c1.372,0,2.287-0.114,3.888-0.343l-9.834,16.352
		c-3.315,5.604-5.146,9.605-5.146,11.32c0,1.602,0.915,2.63,2.173,2.63c2.973,0,10.405-7.775,17.152-17.724
		c0.229-0.458,0.457-0.572,0.571-0.572c0.229,0,0.344,0.114,0.344,0.344c0,0.343-5.261,7.433-8.119,10.863
		c-4.803,5.717-7.661,7.89-10.406,7.89c-3.43,0-5.831-2.858-5.831-6.747c0-2.286,0.457-3.888,1.829-6.518
		c-7.547,10.521-10.635,13.265-14.293,13.265c-4.003,0-6.976-3.773-6.976-8.919c0-6.861,5.374-13.607,15.094-18.982
		c4.46-2.401,8.233-3.659,10.749-3.659c2.173,0,3.431,1.258,3.431,3.316c0,0.801-0.114,1.372-0.458,2.516L179.828,67.155z
		 M152.27,93.798c0,2.401,1.144,3.659,3.202,3.659c2.973,0,6.289-3.201,13.379-12.807c5.146-6.861,7.775-11.778,7.775-14.408
		c0-1.715-1.029-2.744-2.516-2.744C167.249,67.498,152.27,85.565,152.27,93.798z M178.112,45.314
		c-0.686,2.059-0.914,3.545-0.914,5.375c0,3.202,1.372,7.662,3.087,9.948c0.343,0.343,0.457,0.572,0.457,0.687
		c0,0.114-0.114,0.229-0.343,0.229c-1.829,0-5.488-6.747-7.09-12.921L178.112,45.314z"/>
</g>
</svg>
